<svg width="94" height="26" viewBox="0 0 94 26" fill="none" xmlns="http://www.w3.org/2000/svg">
<mask id="path-1-outside-1_2_71" maskUnits="userSpaceOnUse" x="18" y="5" width="76" height="16" fill="black">
<rect fill="white" x="18" y="5" width="76" height="16"/>
<path d="M24.14 20.24C23.1533 20.24 22.2867 20.06 21.54 19.7C20.8067 19.34 20.2267 18.8267 19.8 18.16C19.3867 17.4933 19.1733 16.7 19.16 15.78H21.4C21.4133 16.4867 21.6533 17.0933 22.12 17.6C22.6 18.0933 23.2667 18.34 24.12 18.34C24.9067 18.34 25.52 18.16 25.96 17.8C26.4 17.4267 26.62 16.9467 26.62 16.36C26.62 15.8667 26.4867 15.46 26.22 15.14C25.9667 14.8067 25.5667 14.5133 25.02 14.26C24.4733 13.9933 23.7667 13.72 22.9 13.44C21.74 13.0667 20.8867 12.5533 20.34 11.9C19.7933 11.2333 19.52 10.42 19.52 9.46C19.52 8.35333 19.92 7.46 20.72 6.78C21.52 6.1 22.62 5.76 24.02 5.76C25.38 5.76 26.4733 6.11333 27.3 6.82C28.1267 7.51333 28.5533 8.48 28.58 9.72H26.32C26.32 9.38667 26.2267 9.06667 26.04 8.76C25.8533 8.44 25.5867 8.18 25.24 7.98C24.8933 7.76667 24.4667 7.66 23.96 7.66C23.3333 7.64667 22.8067 7.8 22.38 8.12C21.9533 8.42667 21.74 8.84667 21.74 9.38C21.74 10.0333 22 10.5467 22.52 10.92C23.04 11.28 23.8867 11.6533 25.06 12.04C25.7933 12.28 26.44 12.5733 27 12.92C27.5733 13.2533 28.02 13.6867 28.34 14.22C28.6733 14.74 28.84 15.4067 28.84 16.22C28.84 16.9667 28.6533 17.6467 28.28 18.26C27.9067 18.86 27.3667 19.34 26.66 19.7C25.9667 20.06 25.1267 20.24 24.14 20.24ZM35.4122 20V6H40.1522C41.2189 6 42.0989 6.18667 42.7922 6.56C43.4855 6.92 43.9989 7.42 44.3322 8.06C44.6655 8.7 44.8322 9.43333 44.8322 10.26C44.8322 11.0867 44.6655 11.82 44.3322 12.46C43.9989 13.1 43.4855 13.6067 42.7922 13.98C42.0989 14.34 41.2189 14.52 40.1522 14.52H37.5322V20H35.4122ZM37.5322 12.62H40.0522C40.9589 12.62 41.6189 12.4067 42.0322 11.98C42.4589 11.5533 42.6722 10.98 42.6722 10.26C42.6722 9.55333 42.4589 8.98667 42.0322 8.56C41.6189 8.12 40.9589 7.9 40.0522 7.9H37.5322V12.62ZM55.9844 20.24C54.851 20.24 53.871 19.9467 53.0444 19.36C52.2177 18.7733 51.5844 17.94 51.1444 16.86C50.7044 15.78 50.4844 14.4933 50.4844 13C50.4844 11.5067 50.7044 10.22 51.1444 9.14C51.5844 8.06 52.2177 7.22667 53.0444 6.64C53.871 6.05333 54.851 5.76 55.9844 5.76C57.131 5.76 58.111 6.05333 58.9244 6.64C59.751 7.22667 60.3844 8.06 60.8244 9.14C61.2644 10.22 61.4844 11.5067 61.4844 13C61.4844 14.4933 61.2644 15.78 60.8244 16.86C60.3844 17.94 59.751 18.7733 58.9244 19.36C58.111 19.9467 57.131 20.24 55.9844 20.24ZM55.9844 18.24C56.9844 18.24 57.791 17.7933 58.4044 16.9C59.0177 15.9933 59.3244 14.6933 59.3244 13C59.3244 11.3067 59.0177 10.0133 58.4044 9.12C57.791 8.21333 56.9844 7.76 55.9844 7.76C54.971 7.76 54.1577 8.21333 53.5444 9.12C52.9444 10.0133 52.6444 11.3067 52.6444 13C52.6444 14.6933 52.9444 15.9933 53.5444 16.9C54.1577 17.7933 54.971 18.24 55.9844 18.24ZM70.9166 20V7.9H67.1566V6H76.7966V7.9H73.0366V20H70.9166ZM88.1088 20.24C87.1221 20.24 86.2554 20.06 85.5088 19.7C84.7754 19.34 84.1954 18.8267 83.7688 18.16C83.3554 17.4933 83.1421 16.7 83.1288 15.78H85.3688C85.3821 16.4867 85.6221 17.0933 86.0888 17.6C86.5688 18.0933 87.2354 18.34 88.0888 18.34C88.8754 18.34 89.4888 18.16 89.9288 17.8C90.3688 17.4267 90.5888 16.9467 90.5888 16.36C90.5888 15.8667 90.4554 15.46 90.1888 15.14C89.9354 14.8067 89.5354 14.5133 88.9888 14.26C88.4421 13.9933 87.7354 13.72 86.8688 13.44C85.7088 13.0667 84.8554 12.5533 84.3088 11.9C83.7621 11.2333 83.4888 10.42 83.4888 9.46C83.4888 8.35333 83.8888 7.46 84.6888 6.78C85.4888 6.1 86.5888 5.76 87.9888 5.76C89.3488 5.76 90.4421 6.11333 91.2688 6.82C92.0954 7.51333 92.5221 8.48 92.5488 9.72H90.2888C90.2888 9.38667 90.1954 9.06667 90.0088 8.76C89.8221 8.44 89.5554 8.18 89.2088 7.98C88.8621 7.76667 88.4354 7.66 87.9288 7.66C87.3021 7.64667 86.7754 7.8 86.3488 8.12C85.9221 8.42667 85.7088 8.84667 85.7088 9.38C85.7088 10.0333 85.9688 10.5467 86.4888 10.92C87.0088 11.28 87.8554 11.6533 89.0288 12.04C89.7621 12.28 90.4088 12.5733 90.9688 12.92C91.5421 13.2533 91.9888 13.6867 92.3088 14.22C92.6421 14.74 92.8088 15.4067 92.8088 16.22C92.8088 16.9667 92.6221 17.6467 92.2487 18.26C91.8754 18.86 91.3354 19.34 90.6288 19.7C89.9354 20.06 89.0954 20.24 88.1088 20.24Z"/>
</mask>
<path d="M24.14 20.24C23.1533 20.24 22.2867 20.06 21.54 19.7C20.8067 19.34 20.2267 18.8267 19.8 18.16C19.3867 17.4933 19.1733 16.7 19.16 15.78H21.4C21.4133 16.4867 21.6533 17.0933 22.12 17.6C22.6 18.0933 23.2667 18.34 24.12 18.34C24.9067 18.34 25.52 18.16 25.96 17.8C26.4 17.4267 26.62 16.9467 26.62 16.36C26.62 15.8667 26.4867 15.46 26.22 15.14C25.9667 14.8067 25.5667 14.5133 25.02 14.26C24.4733 13.9933 23.7667 13.72 22.9 13.44C21.74 13.0667 20.8867 12.5533 20.34 11.9C19.7933 11.2333 19.52 10.42 19.52 9.46C19.52 8.35333 19.92 7.46 20.72 6.78C21.52 6.1 22.62 5.76 24.02 5.76C25.38 5.76 26.4733 6.11333 27.3 6.82C28.1267 7.51333 28.5533 8.48 28.58 9.72H26.32C26.32 9.38667 26.2267 9.06667 26.04 8.76C25.8533 8.44 25.5867 8.18 25.24 7.98C24.8933 7.76667 24.4667 7.66 23.96 7.66C23.3333 7.64667 22.8067 7.8 22.38 8.12C21.9533 8.42667 21.74 8.84667 21.74 9.38C21.74 10.0333 22 10.5467 22.52 10.92C23.04 11.28 23.8867 11.6533 25.06 12.04C25.7933 12.28 26.44 12.5733 27 12.92C27.5733 13.2533 28.02 13.6867 28.34 14.22C28.6733 14.74 28.84 15.4067 28.84 16.22C28.84 16.9667 28.6533 17.6467 28.28 18.26C27.9067 18.86 27.3667 19.34 26.66 19.7C25.9667 20.06 25.1267 20.24 24.14 20.24ZM35.4122 20V6H40.1522C41.2189 6 42.0989 6.18667 42.7922 6.56C43.4855 6.92 43.9989 7.42 44.3322 8.06C44.6655 8.7 44.8322 9.43333 44.8322 10.26C44.8322 11.0867 44.6655 11.82 44.3322 12.46C43.9989 13.1 43.4855 13.6067 42.7922 13.98C42.0989 14.34 41.2189 14.52 40.1522 14.52H37.5322V20H35.4122ZM37.5322 12.62H40.0522C40.9589 12.62 41.6189 12.4067 42.0322 11.98C42.4589 11.5533 42.6722 10.98 42.6722 10.26C42.6722 9.55333 42.4589 8.98667 42.0322 8.56C41.6189 8.12 40.9589 7.9 40.0522 7.9H37.5322V12.62ZM55.9844 20.24C54.851 20.24 53.871 19.9467 53.0444 19.36C52.2177 18.7733 51.5844 17.94 51.1444 16.86C50.7044 15.78 50.4844 14.4933 50.4844 13C50.4844 11.5067 50.7044 10.22 51.1444 9.14C51.5844 8.06 52.2177 7.22667 53.0444 6.64C53.871 6.05333 54.851 5.76 55.9844 5.76C57.131 5.76 58.111 6.05333 58.9244 6.64C59.751 7.22667 60.3844 8.06 60.8244 9.14C61.2644 10.22 61.4844 11.5067 61.4844 13C61.4844 14.4933 61.2644 15.78 60.8244 16.86C60.3844 17.94 59.751 18.7733 58.9244 19.36C58.111 19.9467 57.131 20.24 55.9844 20.24ZM55.9844 18.24C56.9844 18.24 57.791 17.7933 58.4044 16.9C59.0177 15.9933 59.3244 14.6933 59.3244 13C59.3244 11.3067 59.0177 10.0133 58.4044 9.12C57.791 8.21333 56.9844 7.76 55.9844 7.76C54.971 7.76 54.1577 8.21333 53.5444 9.12C52.9444 10.0133 52.6444 11.3067 52.6444 13C52.6444 14.6933 52.9444 15.9933 53.5444 16.9C54.1577 17.7933 54.971 18.24 55.9844 18.24ZM70.9166 20V7.9H67.1566V6H76.7966V7.9H73.0366V20H70.9166ZM88.1088 20.24C87.1221 20.24 86.2554 20.06 85.5088 19.7C84.7754 19.34 84.1954 18.8267 83.7688 18.16C83.3554 17.4933 83.1421 16.7 83.1288 15.78H85.3688C85.3821 16.4867 85.6221 17.0933 86.0888 17.6C86.5688 18.0933 87.2354 18.34 88.0888 18.34C88.8754 18.34 89.4888 18.16 89.9288 17.8C90.3688 17.4267 90.5888 16.9467 90.5888 16.36C90.5888 15.8667 90.4554 15.46 90.1888 15.14C89.9354 14.8067 89.5354 14.5133 88.9888 14.26C88.4421 13.9933 87.7354 13.72 86.8688 13.44C85.7088 13.0667 84.8554 12.5533 84.3088 11.9C83.7621 11.2333 83.4888 10.42 83.4888 9.46C83.4888 8.35333 83.8888 7.46 84.6888 6.78C85.4888 6.1 86.5888 5.76 87.9888 5.76C89.3488 5.76 90.4421 6.11333 91.2688 6.82C92.0954 7.51333 92.5221 8.48 92.5488 9.72H90.2888C90.2888 9.38667 90.1954 9.06667 90.0088 8.76C89.8221 8.44 89.5554 8.18 89.2088 7.98C88.8621 7.76667 88.4354 7.66 87.9288 7.66C87.3021 7.64667 86.7754 7.8 86.3488 8.12C85.9221 8.42667 85.7088 8.84667 85.7088 9.38C85.7088 10.0333 85.9688 10.5467 86.4888 10.92C87.0088 11.28 87.8554 11.6533 89.0288 12.04C89.7621 12.28 90.4088 12.5733 90.9688 12.92C91.5421 13.2533 91.9888 13.6867 92.3088 14.22C92.6421 14.74 92.8088 15.4067 92.8088 16.22C92.8088 16.9667 92.6221 17.6467 92.2487 18.26C91.8754 18.86 91.3354 19.34 90.6288 19.7C89.9354 20.06 89.0954 20.24 88.1088 20.24Z" fill="#212121"/>
<path d="M21.54 19.7L21.4519 19.8795L21.4531 19.8802L21.54 19.7ZM19.8 18.16L19.63 18.2654L19.6315 18.2678L19.8 18.16ZM19.16 15.78V15.58H18.9571L18.96 15.7829L19.16 15.78ZM21.4 15.78L21.6 15.7762L21.5963 15.58H21.4V15.78ZM22.12 17.6L21.9728 17.7355L21.9767 17.7395L22.12 17.6ZM25.96 17.8L26.0867 17.9548L26.0894 17.9525L25.96 17.8ZM26.22 15.14L26.0606 15.2611L26.0664 15.268L26.22 15.14ZM25.02 14.26L24.9323 14.4398L24.9359 14.4415L25.02 14.26ZM22.9 13.44L22.9615 13.2497L22.9613 13.2496L22.9 13.44ZM20.34 11.9L20.1853 12.0268L20.1866 12.0283L20.34 11.9ZM27.3 6.82L27.17 6.97203L27.1715 6.97324L27.3 6.82ZM28.58 9.72V9.92H28.7843L28.78 9.7157L28.58 9.72ZM26.32 9.72H26.12V9.92H26.32V9.72ZM26.04 8.76L25.8672 8.86079L25.8692 8.86399L26.04 8.76ZM25.24 7.98L25.1351 8.1504L25.1401 8.15324L25.24 7.98ZM23.96 7.66L23.9557 7.86H23.96V7.66ZM22.38 8.12L22.4968 8.28244L22.5 8.28L22.38 8.12ZM22.52 10.92L22.4033 11.0825L22.4062 11.0844L22.52 10.92ZM25.06 12.04L24.9974 12.23L24.9978 12.2301L25.06 12.04ZM27 12.92L26.8947 13.0901L26.8995 13.0929L27 12.92ZM28.34 14.22L28.1684 14.3229L28.1716 14.3279L28.34 14.22ZM28.28 18.26L28.4498 18.3657L28.4508 18.364L28.28 18.26ZM26.66 19.7L26.5692 19.5218L26.5678 19.5225L26.66 19.7ZM24.14 20.04C23.1777 20.04 22.3418 19.8645 21.6269 19.5198L21.4531 19.8802C22.2316 20.2555 23.1289 20.44 24.14 20.44V20.04ZM21.6281 19.5205C20.9265 19.176 20.3748 18.687 19.9685 18.0522L19.6315 18.2678C20.0786 18.9663 20.6868 19.504 21.4519 19.8795L21.6281 19.5205ZM19.97 18.0546C19.5788 17.4237 19.3729 16.6672 19.36 15.7771L18.96 15.7829C18.9738 16.7328 19.1945 17.5629 19.63 18.2654L19.97 18.0546ZM19.16 15.98H21.4V15.58H19.16V15.98ZM21.2 15.7838C21.2143 16.5379 21.4722 17.1918 21.9729 17.7355L22.2671 17.4645C21.8345 16.9948 21.6124 16.4354 21.6 15.7762L21.2 15.7838ZM21.9767 17.7395C22.5029 18.2804 23.2264 18.54 24.12 18.54V18.14C23.3069 18.14 22.6971 17.9063 22.2633 17.4605L21.9767 17.7395ZM24.12 18.54C24.9353 18.54 25.5994 18.3535 26.0866 17.9548L25.8334 17.6452C25.4406 17.9665 24.878 18.14 24.12 18.14V18.54ZM26.0894 17.9525C26.575 17.5404 26.82 17.0043 26.82 16.36H26.42C26.42 16.8891 26.225 17.3129 25.8306 17.6475L26.0894 17.9525ZM26.82 16.36C26.82 15.8289 26.6756 15.3743 26.3736 15.012L26.0664 15.268C26.2978 15.5457 26.42 15.9044 26.42 16.36H26.82ZM26.3792 15.019C26.0994 14.6508 25.6682 14.34 25.1041 14.0785L24.9359 14.4415C25.4651 14.6867 25.8339 14.9626 26.0608 15.261L26.3792 15.019ZM25.1077 14.0802C24.5495 13.808 23.8332 13.5313 22.9615 13.2497L22.8385 13.6303C23.7002 13.9087 24.3972 14.1787 24.9323 14.4398L25.1077 14.0802ZM22.9613 13.2496C21.8225 12.8831 21.0075 12.3861 20.4934 11.7717L20.1866 12.0283C20.7658 12.7206 21.6575 13.2502 22.8387 13.6304L22.9613 13.2496ZM20.4947 11.7732C19.9807 11.1464 19.72 10.3793 19.72 9.46H19.32C19.32 10.4607 19.606 11.3203 20.1853 12.0268L20.4947 11.7732ZM19.72 9.46C19.72 8.40839 20.0969 7.5721 20.8495 6.93239L20.5905 6.62761C19.7431 7.3479 19.32 8.29828 19.32 9.46H19.72ZM20.8495 6.93239C21.6028 6.29209 22.6515 5.96 24.02 5.96V5.56C22.5885 5.56 21.4372 5.90791 20.5905 6.62761L20.8495 6.93239ZM24.02 5.96C25.3447 5.96 26.388 6.30348 27.17 6.97202L27.43 6.66797C26.5587 5.92318 25.4153 5.56 24.02 5.56V5.96ZM27.1715 6.97324C27.9472 7.62381 28.3544 8.53237 28.38 9.7243L28.78 9.7157C28.7523 8.42763 28.3062 7.40286 27.4285 6.66676L27.1715 6.97324ZM28.58 9.52H26.32V9.92H28.58V9.52ZM26.52 9.72C26.52 9.34716 26.4151 8.9915 26.2108 8.65601L25.8692 8.86399C26.0383 9.14183 26.12 9.42617 26.12 9.72H26.52ZM26.2128 8.65923C26.0071 8.30675 25.7143 8.02272 25.3399 7.80676L25.1401 8.15324C25.4591 8.33728 25.6995 8.57325 25.8672 8.86077L26.2128 8.65923ZM25.3448 7.80967C24.9597 7.5727 24.4947 7.46 23.96 7.46V7.86C24.4387 7.86 24.8269 7.96063 25.1352 8.15033L25.3448 7.80967ZM23.9643 7.46004C23.301 7.44593 22.7285 7.60864 22.26 7.96L22.5 8.28C22.8849 7.99135 23.3656 7.8474 23.9557 7.85995L23.9643 7.46004ZM22.2633 7.9576C21.7834 8.3025 21.54 8.78343 21.54 9.38H21.94C21.94 8.9099 22.1233 8.55083 22.4967 8.2824L22.2633 7.9576ZM21.54 9.38C21.54 10.0962 21.8298 10.6707 22.4034 11.0825L22.6366 10.7575C22.1702 10.4227 21.94 9.97049 21.94 9.38H21.54ZM22.4062 11.0844C22.9506 11.4614 23.8197 11.8418 24.9974 12.23L25.1226 11.85C23.9536 11.4648 23.1294 11.0986 22.6338 10.7556L22.4062 11.0844ZM24.9978 12.2301C25.7185 12.466 26.3503 12.753 26.8947 13.0901L27.1053 12.7499C26.5297 12.3936 25.8681 12.094 25.1222 11.8499L24.9978 12.2301ZM26.8995 13.0929C27.4456 13.4104 27.867 13.8204 28.1685 14.3229L28.5115 14.1171C28.173 13.5529 27.701 13.0962 27.1005 12.7471L26.8995 13.0929ZM28.1716 14.3279C28.4787 14.807 28.64 15.433 28.64 16.22H29.04C29.04 15.3803 28.868 14.673 28.5084 14.1121L28.1716 14.3279ZM28.64 16.22C28.64 16.9315 28.4626 17.5753 28.1092 18.156L28.4508 18.364C28.844 17.718 29.04 17.0018 29.04 16.22H28.64ZM28.1102 18.1543C27.7584 18.7198 27.2475 19.1763 26.5692 19.5218L26.7508 19.8782C27.4858 19.5037 28.055 19.0002 28.4498 18.3657L28.1102 18.1543ZM26.5678 19.5225C25.9095 19.8643 25.1028 20.04 24.14 20.04V20.44C25.1505 20.44 26.0239 20.2557 26.7522 19.8775L26.5678 19.5225ZM35.4122 20H35.2122V20.2H35.4122V20ZM35.4122 6V5.8H35.2122V6H35.4122ZM42.7922 6.56L42.6974 6.73611L42.7 6.7375L42.7922 6.56ZM44.3322 8.06L44.1548 8.15239L44.3322 8.06ZM44.3322 12.46L44.1548 12.3676L44.3322 12.46ZM42.7922 13.98L42.8844 14.1575L42.887 14.1561L42.7922 13.98ZM37.5322 14.52V14.32H37.3322V14.52H37.5322ZM37.5322 20V20.2H37.7322V20H37.5322ZM37.5322 12.62H37.3322V12.82H37.5322V12.62ZM42.0322 11.98L41.8907 11.8386L41.8885 11.8408L42.0322 11.98ZM42.0322 8.56L41.8863 8.697L41.8908 8.70142L42.0322 8.56ZM37.5322 7.9V7.7H37.3322V7.9H37.5322ZM35.6122 20V6H35.2122V20H35.6122ZM35.4122 6.2H40.1522V5.8H35.4122V6.2ZM40.1522 6.2C41.197 6.2 42.0417 6.38303 42.6974 6.73609L42.887 6.3839C42.156 5.99031 41.2407 5.8 40.1522 5.8V6.2ZM42.7 6.7375C43.3601 7.0802 43.842 7.55188 44.1548 8.15239L44.5096 7.96761C44.1557 7.28811 43.611 6.75979 42.8844 6.3825L42.7 6.7375ZM44.1548 8.15239C44.4712 8.75995 44.6322 9.46078 44.6322 10.26H45.0322C45.0322 9.40588 44.8598 8.64005 44.5096 7.96761L44.1548 8.15239ZM44.6322 10.26C44.6322 11.0592 44.4712 11.76 44.1548 12.3676L44.5096 12.5524C44.8598 11.88 45.0322 11.1141 45.0322 10.26H44.6322ZM44.1548 12.3676C43.8417 12.9688 43.3588 13.4478 42.6974 13.8039L42.887 14.1561C43.6123 13.7656 44.156 13.2312 44.5096 12.5524L44.1548 12.3676ZM42.7 13.8025C42.0436 14.1433 41.1979 14.32 40.1522 14.32V14.72C41.2398 14.72 42.1541 14.5367 42.8844 14.1575L42.7 13.8025ZM40.1522 14.32H37.5322V14.72H40.1522V14.32ZM37.3322 14.52V20H37.7322V14.52H37.3322ZM37.5322 19.8H35.4122V20.2H37.5322V19.8ZM37.5322 12.82H40.0522V12.42H37.5322V12.82ZM40.0522 12.82C40.9849 12.82 41.709 12.6011 42.1758 12.1192L41.8885 11.8408C41.5287 12.2122 40.9328 12.42 40.0522 12.42V12.82ZM42.1736 12.1214C42.6449 11.6501 42.8722 11.0221 42.8722 10.26H42.4722C42.4722 10.9379 42.2728 11.4565 41.8908 11.8386L42.1736 12.1214ZM42.8722 10.26C42.8722 9.51008 42.6442 8.88915 42.1736 8.41858L41.8908 8.70142C42.2735 9.08418 42.4722 9.59659 42.4722 10.26H42.8722ZM42.178 8.42306C41.7113 7.92635 40.9864 7.7 40.0522 7.7V8.1C40.9313 8.1 41.5264 8.31365 41.8864 8.69693L42.178 8.42306ZM40.0522 7.7H37.5322V8.1H40.0522V7.7ZM37.3322 7.9V12.62H37.7322V7.9H37.3322ZM53.0444 19.36L53.1601 19.1969L53.0444 19.36ZM51.1444 16.86L50.9592 16.9355L51.1444 16.86ZM51.1444 9.14L50.9592 9.06454L51.1444 9.14ZM53.0444 6.64L52.9286 6.4769L53.0444 6.64ZM58.9244 6.64L58.8074 6.80221L58.8086 6.8031L58.9244 6.64ZM60.8244 9.14L61.0096 9.06454L60.8244 9.14ZM60.8244 16.86L61.0096 16.9355L60.8244 16.86ZM58.9244 19.36L58.8086 19.1969L58.8074 19.1978L58.9244 19.36ZM58.4044 16.9L58.5693 17.0132L58.57 17.0121L58.4044 16.9ZM58.4044 9.12L58.2387 9.23206L58.2395 9.2332L58.4044 9.12ZM53.5444 9.12L53.3787 9.00794L53.3783 9.00849L53.5444 9.12ZM53.5444 16.9L53.3776 17.0104L53.3795 17.0132L53.5444 16.9ZM55.9844 20.04C54.8874 20.04 53.949 19.7568 53.1601 19.1969L52.9286 19.5231C53.7931 20.1366 54.8147 20.44 55.9844 20.44V20.04ZM53.1601 19.1969C52.3689 18.6354 51.7575 17.8347 51.3296 16.7845L50.9592 16.9355C51.4113 18.0453 52.0665 18.9113 52.9286 19.5231L53.1601 19.1969ZM51.3296 16.7845C50.9017 15.7342 50.6844 14.4744 50.6844 13H50.2844C50.2844 14.5123 50.5071 15.8258 50.9592 16.9355L51.3296 16.7845ZM50.6844 13C50.6844 11.5256 50.9017 10.2658 51.3296 9.21546L50.9592 9.06454C50.5071 10.1742 50.2844 11.4877 50.2844 13H50.6844ZM51.3296 9.21546C51.7575 8.16526 52.3689 7.36459 53.1601 6.8031L52.9286 6.4769C52.0665 7.08874 51.4113 7.95474 50.9592 9.06454L51.3296 9.21546ZM53.1601 6.8031C53.949 6.24324 54.8874 5.96 55.9844 5.96V5.56C54.8147 5.56 53.7931 5.86343 52.9286 6.4769L53.1601 6.8031ZM55.9844 5.96C57.0953 5.96 58.0329 6.24353 58.8074 6.80221L59.0414 6.47779C58.1892 5.86313 57.1668 5.56 55.9844 5.56V5.96ZM58.8086 6.8031C59.5998 7.36459 60.2113 8.16526 60.6392 9.21546L61.0096 9.06454C60.5575 7.95474 59.9023 7.08874 59.0401 6.4769L58.8086 6.8031ZM60.6392 9.21546C61.0671 10.2658 61.2844 11.5256 61.2844 13H61.6844C61.6844 11.4877 61.4617 10.1742 61.0096 9.06454L60.6392 9.21546ZM61.2844 13C61.2844 14.4744 61.0671 15.7342 60.6392 16.7845L61.0096 16.9355C61.4617 15.8258 61.6844 14.5123 61.6844 13H61.2844ZM60.6392 16.7845C60.2113 17.8347 59.5998 18.6354 58.8086 19.1969L59.0401 19.5231C59.9023 18.9113 60.5575 18.0453 61.0096 16.9355L60.6392 16.7845ZM58.8074 19.1978C58.0329 19.7565 57.0953 20.04 55.9844 20.04V20.44C57.1668 20.44 58.1892 20.1369 59.0414 19.5222L58.8074 19.1978ZM55.9844 18.44C57.0565 18.44 57.9223 17.9555 58.5693 17.0132L58.2395 16.7868C57.6598 17.6312 56.9122 18.04 55.9844 18.04V18.44ZM58.57 17.0121C59.2149 16.0588 59.5244 14.713 59.5244 13H59.1244C59.1244 14.6737 58.8205 15.9279 58.2387 16.7879L58.57 17.0121ZM59.5244 13C59.5244 11.2873 59.215 9.94738 58.5693 9.0068L58.2395 9.2332C58.8204 10.0793 59.1244 11.326 59.1244 13H59.5244ZM58.57 9.00794C57.9236 8.05241 57.0578 7.56 55.9844 7.56V7.96C56.9109 7.96 57.6584 8.37426 58.2387 9.23206L58.57 9.00794ZM55.9844 7.56C54.8986 7.56 54.0257 8.0515 53.3787 9.00794L53.71 9.23206C54.2897 8.37517 55.0435 7.96 55.9844 7.96V7.56ZM53.3783 9.00849C52.7468 9.94872 52.4444 11.2879 52.4444 13H52.8444C52.8444 11.3254 53.1419 10.0779 53.7104 9.23151L53.3783 9.00849ZM52.4444 13C52.4444 14.7124 52.747 16.0574 53.3776 17.0104L53.7112 16.7896C53.1418 15.9292 52.8444 14.6743 52.8444 13H52.4444ZM53.3795 17.0132C54.0271 17.9564 54.8999 18.44 55.9844 18.44V18.04C55.0422 18.04 54.2883 17.6303 53.7093 16.7868L53.3795 17.0132ZM70.9166 20H70.7166V20.2H70.9166V20ZM70.9166 7.9H71.1166V7.7H70.9166V7.9ZM67.1566 7.9H66.9566V8.1H67.1566V7.9ZM67.1566 6V5.8H66.9566V6H67.1566ZM76.7966 6H76.9966V5.8H76.7966V6ZM76.7966 7.9V8.1H76.9966V7.9H76.7966ZM73.0366 7.9V7.7H72.8366V7.9H73.0366ZM73.0366 20V20.2H73.2366V20H73.0366ZM71.1166 20V7.9H70.7166V20H71.1166ZM70.9166 7.7H67.1566V8.1H70.9166V7.7ZM67.3566 7.9V6H66.9566V7.9H67.3566ZM67.1566 6.2H76.7966V5.8H67.1566V6.2ZM76.5966 6V7.9H76.9966V6H76.5966ZM76.7966 7.7H73.0366V8.1H76.7966V7.7ZM72.8366 7.9V20H73.2366V7.9H72.8366ZM73.0366 19.8H70.9166V20.2H73.0366V19.8ZM85.5088 19.7L85.4206 19.8795L85.4219 19.8802L85.5088 19.7ZM83.7688 18.16L83.5988 18.2654L83.6003 18.2678L83.7688 18.16ZM83.1288 15.78V15.58H82.9258L82.9288 15.7829L83.1288 15.78ZM85.3688 15.78L85.5687 15.7762L85.565 15.58H85.3688V15.78ZM86.0888 17.6L85.9416 17.7355L85.9454 17.7395L86.0888 17.6ZM89.9287 17.8L90.0554 17.9548L90.0581 17.9525L89.9287 17.8ZM90.1888 15.14L90.0294 15.2611L90.0351 15.268L90.1888 15.14ZM88.9887 14.26L88.901 14.4398L88.9047 14.4415L88.9887 14.26ZM86.8688 13.44L86.9302 13.2497L86.93 13.2496L86.8688 13.44ZM84.3087 11.9L84.1541 12.0268L84.1554 12.0283L84.3087 11.9ZM91.2688 6.82L91.1388 6.97203L91.1402 6.97324L91.2688 6.82ZM92.5488 9.72V9.92H92.7531L92.7487 9.7157L92.5488 9.72ZM90.2887 9.72H90.0888V9.92H90.2887V9.72ZM90.0088 8.76L89.836 8.86079L89.8379 8.86399L90.0088 8.76ZM89.2087 7.98L89.1039 8.1504L89.1088 8.15324L89.2087 7.98ZM87.9287 7.66L87.9245 7.86H87.9287V7.66ZM86.3487 8.12L86.4655 8.28244L86.4688 8.28L86.3487 8.12ZM86.4887 10.92L86.3721 11.0825L86.3749 11.0844L86.4887 10.92ZM89.0287 12.04L88.9662 12.23L88.9665 12.2301L89.0287 12.04ZM90.9688 12.92L90.8634 13.0901L90.8682 13.0929L90.9688 12.92ZM92.3088 14.22L92.1372 14.3229L92.1404 14.3279L92.3088 14.22ZM92.2487 18.26L92.4186 18.3657L92.4196 18.364L92.2487 18.26ZM90.6288 19.7L90.538 19.5218L90.5366 19.5225L90.6288 19.7ZM88.1087 20.04C87.1465 20.04 86.3105 19.8645 85.5956 19.5198L85.4219 19.8802C86.2003 20.2555 87.0977 20.44 88.1087 20.44V20.04ZM85.5969 19.5205C84.8953 19.176 84.3435 18.687 83.9372 18.0522L83.6003 18.2678C84.0473 18.9663 84.6556 19.504 85.4206 19.8795L85.5969 19.5205ZM83.9387 18.0546C83.5476 17.4237 83.3416 16.6672 83.3287 15.7771L82.9288 15.7829C82.9425 16.7328 83.1632 17.5629 83.5988 18.2654L83.9387 18.0546ZM83.1288 15.98H85.3688V15.58H83.1288V15.98ZM85.1688 15.7838C85.183 16.5379 85.4409 17.1918 85.9416 17.7355L86.2359 17.4645C85.8033 16.9948 85.5812 16.4354 85.5687 15.7762L85.1688 15.7838ZM85.9454 17.7395C86.4717 18.2804 87.1952 18.54 88.0888 18.54V18.14C87.2756 18.14 86.6658 17.9063 86.2321 17.4605L85.9454 17.7395ZM88.0888 18.54C88.904 18.54 89.5681 18.3535 90.0554 17.9548L89.8021 17.6452C89.4094 17.9665 88.8468 18.14 88.0888 18.14V18.54ZM90.0581 17.9525C90.5438 17.5404 90.7887 17.0043 90.7887 16.36H90.3887C90.3887 16.8891 90.1937 17.3129 89.7994 17.6475L90.0581 17.9525ZM90.7887 16.36C90.7887 15.8289 90.6443 15.3743 90.3424 15.012L90.0351 15.268C90.2665 15.5457 90.3887 15.9044 90.3887 16.36H90.7887ZM90.348 15.019C90.0681 14.6508 89.637 14.34 89.0728 14.0785L88.9047 14.4415C89.4339 14.6867 89.8027 14.9626 90.0295 15.261L90.348 15.019ZM89.0764 14.0802C88.5182 13.808 87.8019 13.5313 86.9302 13.2497L86.8073 13.6303C87.6689 13.9087 88.3659 14.1787 88.9011 14.4398L89.0764 14.0802ZM86.93 13.2496C85.7913 12.8831 84.9763 12.3861 84.4621 11.7717L84.1554 12.0283C84.7346 12.7206 85.6262 13.2502 86.8075 13.6304L86.93 13.2496ZM84.4634 11.7732C83.9494 11.1464 83.6888 10.3793 83.6888 9.46H83.2887C83.2887 10.4607 83.5748 11.3203 84.1541 12.0268L84.4634 11.7732ZM83.6888 9.46C83.6888 8.40839 84.0657 7.5721 84.8183 6.93239L84.5592 6.62761C83.7118 7.3479 83.2887 8.29828 83.2887 9.46H83.6888ZM84.8183 6.93239C85.5716 6.29209 86.6202 5.96 87.9888 5.96V5.56C86.5573 5.56 85.4059 5.90791 84.5592 6.62761L84.8183 6.93239ZM87.9888 5.96C89.3134 5.96 90.3567 6.30348 91.1388 6.97202L91.3987 6.66797C90.5274 5.92318 89.3841 5.56 87.9888 5.56V5.96ZM91.1402 6.97324C91.9159 7.62381 92.3232 8.53237 92.3488 9.7243L92.7487 9.7157C92.721 8.42763 92.2749 7.40286 91.3973 6.66676L91.1402 6.97324ZM92.5488 9.52H90.2887V9.92H92.5488V9.52ZM90.4887 9.72C90.4887 9.34716 90.3838 8.9915 90.1796 8.65601L89.8379 8.86399C90.007 9.14183 90.0888 9.42617 90.0888 9.72H90.4887ZM90.1815 8.65923C89.9759 8.30675 89.683 8.02272 89.3087 7.80676L89.1088 8.15324C89.4278 8.33728 89.6683 8.57325 89.836 8.86077L90.1815 8.65923ZM89.3136 7.80967C88.9285 7.5727 88.4634 7.46 87.9287 7.46V7.86C88.4074 7.86 88.7957 7.96063 89.1039 8.15033L89.3136 7.80967ZM87.933 7.46004C87.2698 7.44593 86.6972 7.60864 86.2288 7.96L86.4688 8.28C86.8536 7.99135 87.3344 7.8474 87.9245 7.85995L87.933 7.46004ZM86.232 7.9576C85.7522 8.3025 85.5088 8.78343 85.5088 9.38H85.9088C85.9088 8.9099 86.092 8.55083 86.4655 8.2824L86.232 7.9576ZM85.5088 9.38C85.5088 10.0962 85.7985 10.6707 86.3721 11.0825L86.6054 10.7575C86.139 10.4227 85.9088 9.97049 85.9088 9.38H85.5088ZM86.3749 11.0844C86.9193 11.4614 87.7885 11.8418 88.9662 12.23L89.0913 11.85C87.9224 11.4648 87.0982 11.0986 86.6026 10.7556L86.3749 11.0844ZM88.9665 12.2301C89.6873 12.466 90.3191 12.753 90.8635 13.0901L91.074 12.7499C90.4984 12.3936 89.8369 12.094 89.091 11.8499L88.9665 12.2301ZM90.8682 13.0929C91.4144 13.4104 91.8358 13.8204 92.1373 14.3229L92.4802 14.1171C92.1417 13.5529 91.6698 13.0962 91.0693 12.7471L90.8682 13.0929ZM92.1404 14.3279C92.4475 14.807 92.6087 15.433 92.6087 16.22H93.0088C93.0088 15.3803 92.8367 14.673 92.4771 14.1121L92.1404 14.3279ZM92.6087 16.22C92.6087 16.9315 92.4314 17.5753 92.0779 18.156L92.4196 18.364C92.8128 17.718 93.0088 17.0018 93.0088 16.22H92.6087ZM92.0789 18.1543C91.7271 18.7198 91.2162 19.1763 90.538 19.5218L90.7195 19.8782C91.4546 19.5037 92.0237 19.0002 92.4186 18.3657L92.0789 18.1543ZM90.5366 19.5225C89.8782 19.8643 89.0716 20.04 88.1087 20.04V20.44C89.1193 20.44 89.9926 20.2557 90.7209 19.8775L90.5366 19.5225Z" fill="#212121" mask="url(#path-1-outside-1_2_71)"/>
<path d="M5 4L5 12" stroke="#212121" stroke-width="2.5"/>
<path d="M0 9L5 13L10 9" stroke="#212121" stroke-width="2.5" stroke-linejoin="bevel"/>
<circle cx="5" cy="18" r="2" fill="#212121"/>
</svg>
